<svg width="177" height="51" viewBox="0 0 177 51" fill="none" xmlns="http://www.w3.org/2000/svg">
<path d="M3.87168 27.7252H10.4051V24.2035H3.87168V20.4861H11.857V16.9644H0V34.573H3.87168V27.7252Z" fill="#151515"/>
<path d="M13.1832 27.9698V34.573H16.8129V27.9698C16.8129 25.9399 18.4342 24.3013 20.4426 24.3013V20.9752H19.9586C15.9418 20.9752 13.1832 24.1057 13.1832 27.9698Z" fill="#151515"/>
<path d="M28.5574 20.9752C24.5406 20.9752 21.298 24.1057 21.298 27.9698C21.298 31.8339 24.5406 34.9644 28.5574 34.9644C31.7516 34.9644 34.4618 32.9834 35.4297 30.2198H31.4128C30.7595 31.0758 29.7189 31.6383 28.5574 31.6383C26.9846 31.6383 25.6779 30.6355 25.1455 29.2415H35.6959C35.7685 28.8258 35.8169 28.41 35.8169 27.9698C35.8169 24.1057 32.5743 20.9752 28.5574 20.9752ZM25.1455 26.6981C25.6779 25.304 26.9846 24.3013 28.5574 24.3013C30.1061 24.3013 31.437 25.304 31.9694 26.6981H25.1455Z" fill="#151515"/>
<path d="M43.7453 26.7959C42.3418 26.6247 40.7447 26.0133 40.7447 25.2307C40.7447 24.3502 41.4949 24.0567 42.2934 24.0567C43.0919 24.0567 43.8421 24.3502 43.8421 25.4752H47.4718C47.4718 22.6383 45.1004 20.9752 42.2934 20.9752C39.4864 20.9752 37.115 22.6383 37.115 25.3285C37.115 27.4073 39.559 28.9725 42.0998 29.2904C43.1887 29.4372 43.9873 29.9997 43.9873 30.6111C43.9873 31.4671 43.0919 31.8828 42.2934 31.8828C41.4949 31.8828 40.5995 31.5894 40.5995 30.4644H36.9698C36.9698 33.3013 39.4864 34.9644 42.2934 34.9644C45.1004 34.9644 47.617 33.3013 47.617 30.4644C47.617 28.2388 45.6569 27.016 43.7453 26.7959Z" fill="#151515"/>
<path d="M56.2821 20.9752C55.0722 20.9752 53.9833 21.4154 53.1364 22.1491V16.9644H49.5067V34.573H53.1364V27.9453C53.1364 25.9399 54.2737 24.3013 56.2821 24.3013C58.2906 24.3013 59.4279 25.9399 59.4279 27.9698V34.573H63.0576V27.9698C63.0576 24.1057 60.299 20.9752 56.2821 20.9752Z" fill="#151515"/>
<path d="M72.0175 20.9752C68.0006 20.9752 65.242 24.1057 65.242 27.9698V34.573H68.8717V27.9698C68.8717 25.9399 70.009 24.3013 72.0175 24.3013C74.0259 24.3013 75.1632 25.9399 75.1632 27.9698V34.573H78.7929V27.9698C78.7929 24.1057 76.0343 20.9752 72.0175 20.9752Z" fill="#151515"/>
<path d="M87.6346 20.9752C83.6178 20.9752 80.3752 24.1057 80.3752 27.9698C80.3752 31.8339 83.6178 34.9644 87.6346 34.9644C90.8288 34.9644 93.539 32.9834 94.5069 30.2198H90.49C89.8367 31.0758 88.7962 31.6383 87.6346 31.6383C86.0618 31.6383 84.7551 30.6355 84.2227 29.2415H94.7731C94.8457 28.8258 94.8941 28.41 94.8941 27.9698C94.8941 24.1057 91.6515 20.9752 87.6346 20.9752ZM84.2227 26.6981C84.7551 25.304 86.0618 24.3013 87.6346 24.3013C89.1833 24.3013 90.5142 25.304 91.0466 26.6981H84.2227Z" fill="#151515"/>
<path d="M102.822 26.7959C101.419 26.6247 99.8219 26.0133 99.8219 25.2307C99.8219 24.3502 100.572 24.0567 101.371 24.0567C102.169 24.0567 102.919 24.3502 102.919 25.4752H106.549C106.549 22.6383 104.178 20.9752 101.371 20.9752C98.5636 20.9752 96.1922 22.6383 96.1922 25.3285C96.1922 27.4073 98.6362 28.9725 101.177 29.2904C102.266 29.4372 103.064 29.9997 103.064 30.6111C103.064 31.4671 102.169 31.8828 101.371 31.8828C100.572 31.8828 99.6768 31.5894 99.6768 30.4644H96.047C96.047 33.3013 98.5636 34.9644 101.371 34.9644C104.178 34.9644 106.694 33.3013 106.694 30.4644C106.694 28.2388 104.734 27.016 102.822 26.7959Z" fill="#151515"/>
<path d="M115.117 20.9752C111.1 20.9752 107.858 24.1057 107.858 27.9698C107.858 31.8339 111.1 34.9644 115.117 34.9644C118.311 34.9644 121.022 32.9834 121.99 30.2198H117.973C117.319 31.0758 116.279 31.6383 115.117 31.6383C113.544 31.6383 112.238 30.6355 111.705 29.2415H122.256C122.328 28.8258 122.377 28.41 122.377 27.9698C122.377 24.1057 119.134 20.9752 115.117 20.9752ZM111.705 26.6981C112.238 25.304 113.544 24.3013 115.117 24.3013C116.666 24.3013 117.997 25.304 118.529 26.6981H111.705Z" fill="#151515"/>
<path d="M130.596 24.3013C131.999 24.3013 133.185 25.0839 133.814 26.2578H137.637C136.839 23.2252 133.983 20.9752 130.596 20.9752C126.579 20.9752 123.336 24.1057 123.336 27.9698C123.336 31.8339 126.579 34.9644 130.596 34.9644C133.959 34.9644 136.766 32.7633 137.589 29.7796H133.693C133.088 30.8801 131.951 31.6383 130.596 31.6383C128.587 31.6383 126.966 29.9997 126.966 27.9698C126.966 25.9399 128.587 24.3013 130.596 24.3013Z" fill="#151515"/>
<path d="M152.929 27.9698C152.929 24.1057 149.711 20.9752 145.718 20.9752C141.726 20.9752 138.507 24.1057 138.507 27.9698C138.507 31.8339 141.726 34.9644 145.718 34.9644C149.711 34.9644 152.929 31.8339 152.929 27.9698ZM149.3 27.9698C149.3 29.9997 147.702 31.6383 145.718 31.6383C143.734 31.6383 142.137 29.9997 142.137 27.9698C142.137 25.9399 143.734 24.3013 145.718 24.3013C147.702 24.3013 149.3 25.9399 149.3 27.9698Z" fill="#151515"/>
<path d="M170.467 20.9752C168.579 20.9752 166.885 21.8312 165.748 23.2008C164.611 21.8312 162.917 20.9752 161.029 20.9752C157.012 20.9752 154.496 24.1057 154.496 27.9698V34.573H158.126V27.9698C158.126 25.9399 159.021 24.3013 161.029 24.3013C163.038 24.3013 163.933 25.9399 163.933 27.9698V34.573H167.563V27.9698C167.563 25.9399 168.458 24.3013 170.467 24.3013C172.475 24.3013 173.37 25.9399 173.37 27.9698V34.573H177V27.9698C177 24.1057 174.483 20.9752 170.467 20.9752Z" fill="#151515"/>
</svg>
